<mxfile host="app.diagrams.net" modified="2025-03-07T11:01:59.418Z" agent="Mozilla/5.0 (Windows NT 10.0; Win64; x64; rv:135.0) Gecko/20100101 Firefox/135.0" version="24.2.5" etag="qWCVFVOEUbnN43SAXZfl" type="github">
  <diagram name="Page-1" id="RA9XImUkgKvnVcU5kpE4">
    <mxGraphModel>
      <root>
        <mxCell id="0" />
        <mxCell id="1" parent="0" />
      </root>
    </mxGraphModel>
  </diagram>
</mxfile>
